<?xml version="1.0" encoding="utf-8"?>
<!-- Generator: Adobe Illustrator 19.0.0, SVG Export Plug-In . SVG Version: 6.00 Build 0)  -->
<!DOCTYPE svg PUBLIC "-//W3C//DTD SVG 1.1//EN" "http://www.w3.org/Graphics/SVG/1.1/DTD/svg11.dtd">
<svg version="1.1" id="Layer_1" xmlns="http://www.w3.org/2000/svg" xmlns:xlink="http://www.w3.org/1999/xlink" x="0px" y="0px"
	 viewBox="0 0 150 150" enable-background="new 0 0 150 150" xml:space="preserve">
<path fill="#174472" d="M47.429,110.858L27.679,87.463h9.753V46.187h19.992v14.051c1.948-2.3,4.325-4.223,7.011-5.645v-10.19
	c0-2.879-2.514-5.22-5.603-5.22H36.021c-3.087,0-5.599,2.341-5.599,5.22v36.055h-7.16c-1.854,0-3.543,1.02-4.415,2.691
	c-0.847,1.657-0.704,3.625,0.372,5.138l24.27,28.767c0.937,1.222,2.396,1.945,3.942,1.945c1.547,0,3.007-0.724,3.942-1.948
	l16.254-19.248c-2.287-0.806-4.415-1.951-6.32-3.378L47.429,110.858z M83.26,75.977c-1.743-1.214-3.67-2.202-5.781-2.966v-7.08
	c0.927,0.21,1.757,0.618,2.498,1.227c0.738,0.606,1.434,1.222,2.097,1.856l3.719-3.637c-0.712-0.658-1.364-1.237-1.958-1.738
	c-0.595-0.502-1.207-0.929-1.843-1.288c-0.63-0.357-1.303-0.636-2.015-0.849c-0.716-0.209-1.545-0.367-2.498-0.471v-5.226h-3.797
	v5.261c-1.056,0.135-2.093,0.406-3.106,0.811c-1.019,0.41-1.923,0.946-2.713,1.605c-0.792,0.659-1.432,1.455-1.919,2.39
	c-0.489,0.937-0.732,1.995-0.732,3.184c0,2.4,0.845,4.246,2.535,5.537c1.344,1.028,3.324,2.056,5.935,3.084v7.829
	c-1.109-0.29-2.038-0.751-2.791-1.386c-0.751-0.63-1.418-1.435-1.999-2.413l-4.118,3.522c1.189,1.581,2.49,2.781,3.901,3.6
	c1.41,0.815,3.079,1.328,5.008,1.543v4.821h3.797v-4.783c2.508-0.237,4.488-0.924,5.941-2.058c1.872-1.476,2.809-3.623,2.809-6.445
	C86.229,79.35,85.239,77.373,83.26,75.977z M73.682,71.588c-0.319-0.132-0.659-0.29-1.029-0.477
	c-0.372-0.181-0.708-0.392-1.009-0.63c-0.305-0.237-0.561-0.517-0.775-0.833c-0.209-0.313-0.315-0.673-0.315-1.066
	c0-0.424,0.1-0.792,0.295-1.108c0.198-0.315,0.444-0.583,0.734-0.809c0.289-0.226,0.62-0.397,0.99-0.514
	c0.37-0.118,0.738-0.219,1.109-0.299V71.588z M80.627,83.826c-0.198,0.357-0.452,0.659-0.769,0.908
	c-0.319,0.253-0.687,0.45-1.111,0.593c-0.421,0.148-0.841,0.257-1.268,0.337V79.18c0.767,0.37,1.377,0.698,1.823,0.989
	c1.082,0.607,1.624,1.382,1.624,2.333C80.926,83.029,80.828,83.47,80.627,83.826z M131.804,62.736l-24.292-28.786
	c-0.933-1.225-2.39-1.95-3.942-1.95c-1.543,0-3.003,0.723-3.942,1.944L83.377,53.196c2.289,0.806,4.417,1.951,6.32,3.378
	l13.871-16.433l19.757,23.395h-9.761v42.28H93.573V90.768c-1.948,2.299-4.325,4.221-7.011,5.641v11.194
	c0,2.877,2.512,5.217,5.6,5.217h22.813c3.089,0,5.6-2.34,5.6-5.217V70.541h7.161c1.864,0,3.552-1.025,4.411-2.682
	C132.997,66.214,132.864,64.251,131.804,62.736z"/>
</svg>
